<?xml version="1.0" encoding="UTF-8"?>
<svg version="1.1" xmlns="http://www.w3.org/2000/svg" width="512" height="512">
<path d="M0 0 C0.68904566 -0.00226556 1.37809133 -0.00453111 2.08801717 -0.00686532 C4.37845364 -0.01315492 6.66883018 -0.01237923 8.95927429 -0.0115509 C10.60908585 -0.01454554 12.25889672 -0.01794878 13.90870667 -0.02172852 C18.37783308 -0.03054168 22.84694034 -0.0329055 27.31607461 -0.0335443 C30.11176199 -0.03425633 32.90744454 -0.03639354 35.70313072 -0.03904152 C45.46641218 -0.04828607 55.22968001 -0.05237752 64.9929657 -0.05158997 C74.07755705 -0.05098942 83.16208898 -0.06153908 92.2466653 -0.07733363 C100.06006438 -0.09043148 107.87344409 -0.09577292 115.68685406 -0.09513456 C120.34731112 -0.09488023 125.00771533 -0.09769531 129.66816139 -0.10831261 C134.05372366 -0.11803143 138.43918298 -0.11804694 142.82474899 -0.11079597 C144.42827569 -0.10975483 146.03180893 -0.11208493 147.63532448 -0.11815643 C170.85208478 -0.20032448 170.85208478 -0.20032448 179.80961609 8.13371277 C184.78968912 13.24838236 186.94547288 19.05724775 187.18461609 26.13371277 C186.91224925 33.86656256 184.00196373 40.40472584 178.80961609 46.13371277 C174.01905562 50.13371277 174.01905562 50.13371277 170.80961609 50.13371277 C170.83056335 50.79677429 170.85151062 51.45983582 170.87309265 52.14299011 C171.68694266 81.96183633 165.92427083 106.2159076 145.24613953 128.69181824 C141.19349483 132.93857652 136.77363478 136.71009486 132.13700867 140.30583191 C128.00833583 143.59739572 125.34282392 146.73878534 124.50492859 152.07365417 C123.95069095 159.11214223 123.320416 167.45661521 127.87211609 173.26261902 C131.01455527 176.29735363 134.34810923 179.09494973 137.72514343 181.86222839 C155.92861428 196.81892633 168.25181775 218.57748745 170.80961609 242.13371277 C171.22831875 250.46389002 171.07287633 258.80051364 170.80961609 267.13371277 C171.58305359 267.43148621 172.35649109 267.72925964 173.15336609 268.03605652 C179.893396 270.82127476 182.87695823 275.72698329 185.80961609 282.13371277 C188.0796273 289.41488082 187.33854454 296.82200231 184.27445984 303.73527527 C180.37047491 310.12739993 174.96587732 314.15849418 167.80961609 316.13371277 C165.24605187 316.31906111 162.79323019 316.41271287 160.23249817 316.40113831 C159.48980962 316.40566942 158.74712106 316.41020053 157.9819268 316.41486895 C155.50401571 316.42748562 153.02632519 316.42589437 150.54838562 316.42424011 C148.76739724 316.43022703 146.98641146 316.43703295 145.20542908 316.44459534 C140.37480886 316.46224486 135.54425952 316.46695025 130.71361017 316.46822691 C127.69397783 316.46964954 124.67436344 316.47392124 121.65473557 316.47922134 C111.11569323 316.49771741 100.57670146 316.50589239 90.03764343 316.50431824 C80.22076618 316.50311661 70.40410871 316.52422417 60.58728707 316.55580556 C52.15228084 316.58197255 43.71734638 316.59268537 35.28229988 316.59140742 C30.24736226 316.59089796 25.21262005 316.59657267 20.17772293 316.61776352 C15.44161924 316.63715325 10.70589726 316.63726533 5.96977997 316.62273026 C4.23479275 316.62064205 2.49978159 316.62534378 0.76483536 316.63745117 C-16.70922684 316.75146634 -16.70922684 316.75146634 -24.39741516 310.27433777 C-30.40189008 303.20337461 -32.82730826 297.24095747 -32.54194641 287.87590027 C-31.63281469 280.78467282 -28.10683537 275.17007768 -23.19038391 270.13371277 C-18.89038391 267.13371277 -18.89038391 267.13371277 -16.19038391 267.13371277 C-16.21394958 266.11555481 -16.21394958 266.11555481 -16.23799133 265.076828 C-16.84415901 234.8579625 -11.04173479 210.56441033 10.00102234 187.75871277 C13.6649584 183.98645164 17.36309739 180.65725583 21.62211609 177.57121277 C25.89830959 174.27435729 28.55024062 171.47146312 29.80961609 166.13371277 C30.52926442 159.22508881 31.27534688 151.25821514 27.53227234 145.08683777 C24.11952443 141.21750907 20.06727891 138.03114785 16.06742859 134.79386902 C-1.09296033 120.90471007 -11.55895562 100.47242564 -15.81538391 78.97746277 C-16.36140319 73.38076519 -16.29441262 67.81536709 -16.25288391 62.19621277 C-16.24837219 61.03541199 -16.24386047 59.87461121 -16.23921204 58.67863464 C-16.22749039 55.83027343 -16.21108151 52.98202055 -16.19038391 50.13371277 C-16.96382141 49.83593933 -17.73725891 49.53816589 -18.53413391 49.23136902 C-25.33335792 46.42168969 -28.134658 41.51547881 -31.19038391 35.13371277 C-33.58567958 27.94782576 -32.717983 20.34663108 -29.65913391 13.49699402 C-26.05725909 7.70142415 -20.70320101 3.20553676 -14.19038391 1.13371277 C-9.41836214 0.32603876 -4.83635486 0.00660647 0 0 Z M0.80961609 52.13371277 C0.80961609 76.81518831 2.85432778 94.56280343 18.80961609 113.13371277 C19.26723328 113.72281433 19.72485046 114.31191589 20.19633484 114.91886902 C23.17911855 118.67085197 26.49978175 121.58050255 30.24711609 124.57121277 C38.80888615 131.43227749 45.07744241 137.98094543 46.80961609 149.13371277 C47.59173303 161.62493558 48.00151398 173.88594862 39.74711609 184.05949402 C34.82804221 189.32567997 29.41936352 194.15030472 23.68461609 198.50871277 C10.84822749 210.22889366 3.89790855 226.33340176 0.80961609 243.13371277 C0.80961609 250.39371277 0.80961609 257.65371277 0.80961609 265.13371277 C51.29961609 265.13371277 101.78961609 265.13371277 153.80961609 265.13371277 C153.80961609 241.60373689 151.26491006 222.17151088 135.80961609 204.13371277 C134.68233093 202.69125183 134.68233093 202.69125183 133.53227234 201.21965027 C130.8947176 198.05301256 127.7860091 195.74637124 124.43461609 193.38371277 C115.82249892 187.01132813 110.34677659 179.65235736 107.80961609 169.13371277 C107.39451995 165.6630104 107.33194312 162.25152903 107.37211609 158.75871277 C107.37968933 157.83550232 107.38726257 156.91229187 107.39506531 155.96110535 C107.64909114 145.44684615 110.40895897 136.81719755 117.80961609 129.13371277 C121.81730461 125.62778943 126.05035151 122.44835822 130.31352234 119.26261902 C143.91751329 107.65984113 150.62309085 90.21348805 153.80961609 73.13371277 C153.80961609 66.20371277 153.80961609 59.27371277 153.80961609 52.13371277 C103.31961609 52.13371277 52.82961609 52.13371277 0.80961609 52.13371277 Z " fill="#000000" transform="translate(303.1903839111328,195.8662872314453)"/>
<path d="M0 0 C0.83144531 0.00902344 1.66289062 0.01804688 2.51953125 0.02734375 C14.17559202 0.35465903 22.96361745 4.62474436 31.625 12.4375 C36.59247199 18.07774649 42.625 26.59219191 42.625 34.4375 C43.18896484 34.42702637 43.75292969 34.41655273 44.33398438 34.40576172 C46.93094281 34.36375522 49.52782939 34.33803398 52.125 34.3125 C53.011875 34.29574219 53.89875 34.27898438 54.8125 34.26171875 C63.0267298 34.20132 70.05323556 35.03404924 76.625 40.4375 C81.1753239 45.27068188 81.88896335 48.95447937 82.625 55.4375 C84.2332666 55.42417633 84.2332666 55.42417633 85.87402344 55.4105835 C95.99617928 55.32936911 106.1182687 55.26947292 116.24067688 55.23025131 C121.44428119 55.20940891 126.64762171 55.18115235 131.85107422 55.13574219 C136.87612488 55.09216517 141.90092237 55.06833773 146.92614746 55.05799103 C148.83984358 55.05062093 150.75352641 55.03622885 152.66711426 55.01457977 C155.35519968 54.98538801 158.0422494 54.98155055 160.73046875 54.98339844 C161.51522079 54.96901733 162.29997284 54.95463623 163.10850525 54.93981934 C169.42935947 54.98659574 174.89051187 56.73784611 179.46484375 61.25390625 C179.82707031 61.83011719 180.18929688 62.40632813 180.5625 63 C180.94277344 63.57878906 181.32304687 64.15757813 181.71484375 64.75390625 C183.44188563 67.94856312 183.74916616 70.57045623 183.74525452 74.12614441 C183.74731651 75.57115074 183.74731651 75.57115074 183.74942017 77.04534912 C183.74582489 78.10054749 183.74222961 79.15574585 183.73852539 80.24291992 C183.73867142 81.35526505 183.73881744 82.46761017 183.7389679 83.61366272 C183.73827 87.29845108 183.73048331 90.98318919 183.72265625 94.66796875 C183.72079163 97.21958895 183.71936794 99.77120951 183.71836853 102.3228302 C183.71493763 108.35762123 183.70705231 114.39239061 183.69701904 120.42717296 C183.68584404 127.29772598 183.68034395 134.16827986 183.67532361 141.0388397 C183.66486934 155.17173679 183.64707723 169.30461672 183.625 183.4375 C178.015 183.4375 172.405 183.4375 166.625 183.4375 C166.295 147.1375 165.965 110.8375 165.625 73.4375 C138.235 73.1075 110.845 72.7775 82.625 72.4375 C82.625 76.0675 82.625 79.6975 82.625 83.4375 C79.540602 89.78773118 75.78000136 94.45376821 69.28728962 97.5535984 C66.37783398 98.51956111 64.08923228 98.69430305 61.02836609 98.70492554 C59.91397156 98.71345551 58.79957703 98.72198547 57.65141296 98.73077393 C56.43830948 98.72986755 55.22520599 98.72896118 53.9753418 98.72802734 C52.69023712 98.73474457 51.40513245 98.74146179 50.08108521 98.74838257 C46.56234219 98.76602053 43.0436965 98.77073705 39.52491355 98.77201414 C37.32390382 98.7734377 35.12291867 98.77771121 32.92191505 98.78300858 C25.23576924 98.80150251 17.54969271 98.80968011 9.86352539 98.80810547 C2.7112973 98.80690467 -4.44062873 98.82799636 -11.59278041 98.8595928 C-17.7432882 98.88579097 -23.89369756 98.89647127 -30.04426068 98.89519465 C-33.71325793 98.89468599 -37.3819867 98.90031514 -41.05092812 98.92155075 C-45.14654629 98.94460941 -49.2414928 98.93539071 -53.3371582 98.92333984 C-54.544189 98.93457886 -55.75121979 98.94581787 -56.99482727 98.95739746 C-64.80089361 98.8990774 -70.35708756 97.97450401 -76.3984375 92.65625 C-77.06746094 91.80546875 -77.06746094 91.80546875 -77.75 90.9375 C-78.44222656 90.08671875 -78.44222656 90.08671875 -79.1484375 89.21875 C-83.4397522 82.98677706 -82.375 81.28490675 -82.375 72.4375 C-109.765 72.7675 -137.155 73.0975 -165.375 73.4375 C-165.705 212.6975 -166.035 351.9575 -166.375 495.4375 C-93.775 495.7675 -21.175 496.0975 53.625 496.4375 C56.29166667 501.77083333 58.95833333 507.10416667 61.625 512.4375 C32.04434251 512.52874905 2.46369168 512.599538 -27.117077 512.64176132 C-30.60930157 512.64676415 -34.10152585 512.65194144 -37.59375 512.65722656 C-38.63660907 512.65880043 -38.63660907 512.65880043 -39.700536 512.66040608 C-50.95798182 512.67781165 -62.21534594 512.70935014 -73.47274329 512.74611118 C-85.02375839 512.78351646 -96.574716 512.80543555 -108.12579048 512.81385398 C-114.61393174 512.81907388 -121.10188769 512.83136321 -127.58996964 512.86042023 C-133.69498808 512.88754055 -139.79974462 512.89595171 -145.90481758 512.88993073 C-148.14699158 512.89103246 -150.3891742 512.89900623 -152.63129616 512.9143219 C-155.69048437 512.93419635 -158.74868113 512.92944795 -161.80789185 512.91851807 C-163.1415627 512.93599512 -163.1415627 512.93599512 -164.5021764 512.95382524 C-169.95631152 512.90108243 -173.04050494 512.05534024 -177.375 508.4375 C-182.41139885 502.98140125 -183.62427719 498.50179945 -183.63226891 491.14475536 C-183.63577498 490.4170706 -183.63928105 489.68938584 -183.64289337 488.93965003 C-183.6522187 486.4942113 -183.64728117 484.04901011 -183.64242554 481.6035614 C-183.64616123 479.83540633 -183.65076242 478.06725292 -183.65615618 476.29910213 C-183.66841163 471.43454974 -183.66812272 466.57006599 -183.66576743 461.70550168 C-183.66535991 456.46134128 -183.67639224 451.21720308 -183.68588257 445.97305298 C-183.70250744 435.69661783 -183.70799278 425.42020561 -183.70910732 415.14375814 C-183.71005708 406.79201578 -183.71416377 398.440281 -183.72050858 390.08854103 C-183.73812495 366.41880355 -183.74734681 342.74908421 -183.74584763 319.07934012 C-183.74576772 317.80284782 -183.7456878 316.52635552 -183.74560547 315.21118164 C-183.74552371 313.93313389 -183.74544195 312.65508615 -183.74535771 311.33830968 C-183.74454467 290.62201682 -183.7636858 269.90579663 -183.7918822 249.18952479 C-183.82059413 227.92700935 -183.83442343 206.66452938 -183.83269465 185.40199405 C-183.83203017 173.46115317 -183.83754791 161.52038849 -183.85905075 149.57956505 C-183.87724027 139.41337772 -183.88162821 129.24730113 -183.8680319 119.0811046 C-183.86149104 113.89329361 -183.86142543 108.7056952 -183.8787384 103.51790428 C-183.89442465 98.76875268 -183.89165103 94.01998301 -183.87417014 89.27084098 C-183.87109043 87.55282279 -183.87476907 85.83477641 -183.88589029 84.11679145 C-183.99469396 66.11680292 -183.99469396 66.11680292 -177.55859375 59.59765625 C-176.69427734 59.05431641 -176.69427734 59.05431641 -175.8125 58.5 C-175.23371094 58.11972656 -174.65492188 57.73945312 -174.05859375 57.34765625 C-169.8239202 55.05837797 -165.71657727 55.30306532 -161.0480957 55.32397461 C-160.19909698 55.32382858 -159.35009827 55.32368256 -158.47537231 55.3235321 C-155.66714937 55.32422917 -152.85899262 55.33201194 -150.05078125 55.33984375 C-148.10450781 55.34170866 -146.15823391 55.34313222 -144.21195984 55.34413147 C-139.08766383 55.34795088 -133.96339614 55.35777627 -128.83911133 55.36883545 C-123.61084374 55.37906194 -118.38257158 55.38363175 -113.15429688 55.38867188 C-102.89451881 55.39939903 -92.63476176 55.41646857 -82.375 55.4375 C-82.24609375 54.18453125 -82.1171875 52.9315625 -81.984375 51.640625 C-81.4203183 46.15799389 -78.93951631 42.84556468 -74.875 39.1875 C-67.66552521 34.14086765 -60.54437895 34.29577252 -52 34.375 C-50.60974609 34.38176758 -50.60974609 34.38176758 -49.19140625 34.38867188 C-46.91920291 34.40038426 -44.64713612 34.41678628 -42.375 34.4375 C-42.09140625 33.21160156 -41.8078125 31.98570313 -41.515625 30.72265625 C-38.59757976 19.09398998 -31.31346886 11.32638591 -21.44921875 5.015625 C-14.39076697 1.39222663 -7.91628406 -0.1036502 0 0 Z M-9.375 31.4375 C-10.98177955 34.65105911 -10.84331682 37.95188483 -10.375 41.4375 C-8.37743339 45.11302256 -6.87463533 46.21125004 -3.0625 47.9375 C1.51468787 48.55813564 3.65452363 47.72815944 7.625 45.4375 C10.5363603 42.9017991 10.62195176 41.46112385 11.125 37.5625 C10.96460164 32.79510416 8.96779539 30.70070502 5.625 27.4375 C-0.75022241 24.24988879 -4.91213415 26.97463415 -9.375 31.4375 Z " fill="#000000" transform="translate(205.375,-0.4375)"/>
<path d="M0 0 C0.84679825 -0.0071553 1.6935965 -0.01431061 2.5660553 -0.02168274 C3.96248009 -0.02571609 3.96248009 -0.02571609 5.38711548 -0.02983093 C6.36609299 -0.03640213 7.3450705 -0.04297333 8.35371399 -0.04974365 C11.6026415 -0.06950121 14.85152278 -0.08114365 18.10049438 -0.09111023 C19.20795643 -0.09518576 20.31541847 -0.09926128 21.45643997 -0.10346031 C27.31597966 -0.12432979 33.17549586 -0.13862871 39.0350647 -0.147995 C45.09716206 -0.15907187 51.1588936 -0.19348425 57.22086143 -0.23316669 C61.87392882 -0.2592671 66.52690811 -0.2676809 71.18004227 -0.27127647 C73.41521302 -0.27615808 75.65037944 -0.28781648 77.88547897 -0.30631447 C81.01002055 -0.33056969 84.13360303 -0.32976585 87.25820923 -0.32279968 C88.18511063 -0.33560974 89.11201202 -0.3484198 90.06700134 -0.36161804 C96.34080222 -0.3105127 96.34080222 -0.3105127 99.49542236 2.05154419 C103.00078792 7.09463359 102.27391085 12.17206721 101.32315063 18.00654602 C97.44804138 35.1069581 88.67243613 46.59898724 74.70205688 57.20967102 C62.96288818 66.36287388 58.1889659 79.94706838 54.94424438 93.95967102 C53.55126611 98.43475082 53.55126611 98.43475082 50.95205688 100.14717102 C48.83096313 100.61592102 48.83096313 100.61592102 46.51455688 100.64717102 C45.75272095 100.67810852 44.99088501 100.70904602 44.20596313 100.74092102 C40.76673978 99.83492111 39.80587758 98.12595984 37.95205688 95.14717102 C37.22113269 92.61554086 36.63978053 90.21908726 36.13955688 87.64717102 C32.91617736 73.18520767 25.72153939 62.714351 14.07705688 53.83467102 C0.95265517 43.79251516 -6.17541855 31.4693455 -9.04794312 15.14717102 C-9.54746085 10.62414059 -9.58586612 7.32082122 -7.67294312 3.14717102 C-5.26360493 0.18183172 -3.65903174 0.02119469 0 0 Z " fill="#000000" transform="translate(334.0479431152344,255.8528289794922)"/>
<path d="M0 0 C0.97656445 -0.00467997 1.9531289 -0.00935994 2.95928621 -0.01418173 C6.24053194 -0.02617384 9.52136327 -0.01665788 12.8026123 -0.00723267 C15.15136459 -0.01129649 17.50011496 -0.01663729 19.84886169 -0.02316284 C26.23510086 -0.03686473 32.62119498 -0.03152588 39.00743675 -0.02202559 C45.00653675 -0.01521187 51.00562329 -0.02040623 57.00472289 -0.02480717 C69.61059993 -0.03336391 82.21641154 -0.02352249 94.82227784 -0.00740607 C105.64111351 0.00599739 116.4598526 0.00366937 127.27868652 -0.01016235 C139.83913561 -0.02621317 152.39952734 -0.03253991 164.95998526 -0.02332556 C171.61002558 -0.01857971 178.26001204 -0.01804231 184.91004944 -0.02793503 C191.16121116 -0.03658436 197.41219006 -0.03061987 203.66333199 -0.01325226 C205.96115884 -0.00927655 208.25900101 -0.01043988 210.55682182 -0.01704025 C213.68644692 -0.02520288 216.8154812 -0.01499786 219.94506836 0 C220.86062516 -0.00669217 221.77618196 -0.01338433 222.7194829 -0.02027929 C228.80704527 0.03654986 228.80704527 0.03654986 232.00940704 1.69382286 C234.38397258 4.43192816 234.41137064 6.83346584 234.47253418 10.38095093 C232.8413522 14.24427668 231.29626558 15.81441321 227.47253418 17.38095093 C225.47466666 17.63279992 225.47466666 17.63279992 223.32422733 17.63542652 C222.50074867 17.64125871 221.67727001 17.64709091 220.82883745 17.65309983 C219.47987113 17.64743085 219.47987113 17.64743085 218.10365295 17.64164734 C217.14412828 17.64547289 216.1846036 17.64929843 215.19600242 17.65323991 C211.97245054 17.66358009 208.74907643 17.6595758 205.5255127 17.65560913 C203.2177921 17.65995503 200.91007295 17.66513776 198.60235596 17.6710968 C192.32764762 17.68451091 186.05299943 17.68506281 179.77827954 17.6825335 C174.54444388 17.68146547 169.31062046 17.68634284 164.07678741 17.69113892 C151.02576466 17.70287763 137.97477626 17.70200425 124.92375129 17.69558211 C113.58829497 17.69041248 102.25292457 17.70166908 90.91748524 17.72068033 C79.27932736 17.74004972 67.64121383 17.74802475 56.00303978 17.74455708 C49.46865112 17.7427413 42.93434116 17.74540985 36.39996529 17.75927162 C30.25633124 17.77181633 24.11286958 17.76993765 17.96923828 17.75686073 C15.71214173 17.75448811 13.45503316 17.75725404 11.19795036 17.76548386 C8.12123129 17.77589486 5.04509671 17.7678959 1.96839905 17.75517273 C1.07131888 17.76254701 0.17423872 17.7699213 -0.75002569 17.77751905 C-5.48813733 17.73618511 -8.71054231 17.50758569 -12.52746582 14.38095093 C-14.60656772 11.26229809 -14.80905956 10.84355571 -14.40246582 7.38095093 C-14.3380127 6.70032593 -14.27355957 6.01970093 -14.20715332 5.31845093 C-11.99730784 -0.98087873 -5.52828467 -0.04040841 0 0 Z " fill="#000000" transform="translate(95.5274658203125,137.61904907226563)"/>
<path d="M0 0 C0.8230586 -0.00367669 1.64611719 -0.00735338 2.49411696 -0.01114148 C5.26778727 -0.02220474 8.04142015 -0.02602661 10.81510925 -0.02983093 C12.79741536 -0.03609354 14.77972029 -0.04274016 16.76202393 -0.04974365 C22.15875923 -0.0671711 27.55548566 -0.07770995 32.95224214 -0.08594918 C36.3215839 -0.09109514 39.69092288 -0.09717102 43.06026268 -0.10346031 C53.59535458 -0.12251637 64.13043945 -0.1367472 74.66554528 -0.14507228 C86.8393564 -0.15485033 99.01298595 -0.18118299 111.18673307 -0.22157317 C120.58804921 -0.25169808 129.98931319 -0.26653767 139.39067668 -0.26985329 C145.00964603 -0.27220773 150.62842153 -0.28121937 156.24733925 -0.30631447 C161.53245176 -0.32953706 166.81724196 -0.33385184 172.1023922 -0.32355309 C174.04343612 -0.32305621 175.98449561 -0.32942103 177.92549133 -0.34310913 C180.57335691 -0.36073909 183.22005459 -0.35376615 185.86791992 -0.34057617 C186.63796303 -0.35154542 187.40800614 -0.36251466 188.20138389 -0.37381631 C191.887148 -0.32941909 193.95852601 0.04165195 197.09896374 2.03898335 C199.40175549 4.43581625 199.80550888 5.37248117 199.74943542 8.64717102 C199.76232605 9.39998352 199.77521667 10.15279602 199.78849792 10.92842102 C198.7780749 14.30442264 197.07233317 15.27201096 194.12443542 17.14717102 C191.23430624 17.53260755 188.72912158 17.68843441 185.84341431 17.65510559 C184.59779782 17.66446553 184.59779782 17.66446553 183.32701737 17.67401457 C180.54622868 17.68996136 177.7663145 17.67733391 174.98551941 17.66474915 C172.9912922 17.67016947 170.997069 17.67729163 169.00285339 17.68598938 C163.5876646 17.70423501 158.17278041 17.6971503 152.75758624 17.68447304 C147.0939773 17.67435326 141.43039462 17.68373574 135.76678467 17.6900177 C126.25647798 17.69729648 116.74629552 17.68769968 107.23600769 17.6686554 C96.23470468 17.64688003 85.23369811 17.65394202 74.23240227 17.67596102 C64.79195154 17.69410094 55.35159015 17.6966804 45.91112763 17.68620634 C40.27046953 17.67996449 34.62995087 17.67915495 28.98930168 17.69235229 C23.68769037 17.70388986 18.38646211 17.69592325 13.08489227 17.67277527 C11.13699289 17.66747726 9.18906138 17.66902053 7.2411747 17.67782593 C4.58650263 17.68872181 1.93306579 17.67509056 -0.7215271 17.65510559 C-1.49632764 17.66402848 -2.27112818 17.67295136 -3.06940752 17.68214464 C-6.53070236 17.63143646 -8.50749733 17.42044743 -11.32269192 15.33026886 C-13.53776127 12.21622529 -13.87556458 9.94899382 -13.87556458 6.14717102 C-10.01309988 0.02050288 -6.78062236 -0.00160942 0 0 Z " fill="#000000" transform="translate(94.87556457519531,320.8528289794922)"/>
<path d="M0 0 C0.8230586 -0.00367669 1.64611719 -0.00735338 2.49411696 -0.01114148 C5.26778727 -0.02220474 8.04142015 -0.02602661 10.81510925 -0.02983093 C12.79741536 -0.03609354 14.77972029 -0.04274016 16.76202393 -0.04974365 C22.15875923 -0.0671711 27.55548566 -0.07770995 32.95224214 -0.08594918 C36.3215839 -0.09109514 39.69092288 -0.09717102 43.06026268 -0.10346031 C53.59535458 -0.12251637 64.13043945 -0.1367472 74.66554528 -0.14507228 C86.8393564 -0.15485033 99.01298595 -0.18118299 111.18673307 -0.22157317 C120.58804921 -0.25169808 129.98931319 -0.26653767 139.39067668 -0.26985329 C145.00964603 -0.27220773 150.62842153 -0.28121937 156.24733925 -0.30631447 C161.53245176 -0.32953706 166.81724196 -0.33385184 172.1023922 -0.32355309 C174.04343612 -0.32305621 175.98449561 -0.32942103 177.92549133 -0.34310913 C180.57335691 -0.36073909 183.22005459 -0.35376615 185.86791992 -0.34057617 C186.63796303 -0.35154542 187.40800614 -0.36251466 188.20138389 -0.37381631 C191.887148 -0.32941909 193.95852601 0.04165195 197.09896374 2.03898335 C199.40175549 4.43581625 199.80550888 5.37248117 199.74943542 8.64717102 C199.76232605 9.39998352 199.77521667 10.15279602 199.78849792 10.92842102 C198.77838018 14.30340267 197.07080019 15.27232407 194.12443542 17.14717102 C191.24554185 17.5284255 188.75504441 17.68010523 185.88137817 17.64164734 C185.05505074 17.64647617 184.2287233 17.651305 183.37735564 17.65628016 C180.61035357 17.66754578 177.84427676 17.65023627 175.07731628 17.63301086 C173.09294382 17.63515685 171.10857259 17.63903472 169.12420654 17.64451599 C163.73585242 17.65421304 158.34782942 17.63890182 152.95951533 17.61860991 C147.32394582 17.60104992 141.6883867 17.60456377 136.05279541 17.60533142 C126.58955846 17.60345815 117.12644975 17.5860899 107.66325378 17.55879211 C96.71655072 17.527332 85.76998809 17.51679623 74.82324308 17.51826322 C64.29881459 17.51948323 53.7744319 17.50927799 43.25001717 17.4926796 C38.76804306 17.48561197 34.28608517 17.48195282 29.80410576 17.48089218 C24.52884837 17.47888547 19.25370921 17.4666935 13.97849083 17.44655991 C12.04026768 17.44071055 10.10203092 17.43825904 8.16379929 17.43941498 C5.52257619 17.44039422 2.88168584 17.42910667 0.24050903 17.41459656 C-0.91585535 17.41924236 -0.91585535 17.41924236 -2.09558064 17.42398202 C-5.82558258 17.39003216 -8.75066993 17.30763205 -11.87556458 15.14717102 C-13.9723586 12.45129299 -13.87067279 11.05422702 -13.68806458 7.58467102 C-12.90044176 4.25242063 -12.57874845 3.09346341 -9.87556458 1.14717102 C-6.75225819 -0.41448217 -3.42893112 -0.00081388 0 0 Z " fill="#000000" transform="translate(94.87556457519531,366.8528289794922)"/>
<path d="M0 0 C4.18627774 1.29394039 5.06535986 2.43366138 7.4375 6.0625 C8.19119847 8.63624072 8.79393505 11.07199387 9.3125 13.6875 C12.8244122 29.1385068 21.58466762 39.12469158 33.5625 49.0625 C41.21370442 55.42391251 46.24659377 61.4897813 49.4375 71.0625 C16.1075 71.0625 -17.2225 71.0625 -51.5625 71.0625 C-48.16299978 60.86399933 -41.84767123 53.70353219 -33.5625 47.0625 C-20.38903822 36.02661881 -13.13323725 24.08269296 -9.6796875 7.2421875 C-7.89770759 2.17039852 -5.37102324 0.09422848 0 0 Z " fill="#000000" transform="translate(381.5625,376.9375)"/>
<path d="M0 0 C1.11820665 -0.00657338 1.11820665 -0.00657338 2.25900334 -0.01327956 C4.77009876 -0.02669024 7.28115907 -0.03285147 9.7922821 -0.03897095 C11.58739888 -0.04687007 13.38251407 -0.0551389 15.17762756 -0.06375122 C21.08391295 -0.08999125 26.99020551 -0.10527989 32.89653015 -0.11953735 C34.92772616 -0.12489604 36.95892212 -0.13027355 38.99011803 -0.13566971 C47.43729316 -0.1573005 55.88446635 -0.17603847 64.33166218 -0.1872921 C76.44861214 -0.20353947 88.56524183 -0.23673413 100.68207103 -0.29369295 C109.19591956 -0.33235431 117.70968228 -0.35192022 126.2236163 -0.35721266 C131.31168137 -0.36087108 136.399405 -0.37294438 141.48737526 -0.4053154 C146.27351962 -0.43532945 151.05911478 -0.44173175 155.8453331 -0.42993164 C157.60255541 -0.42971035 159.3598027 -0.43806101 161.11693764 -0.45558548 C163.51547221 -0.47820591 165.91200318 -0.4700173 168.31054688 -0.45410156 C169.35471951 -0.47492469 169.35471951 -0.47492469 170.41998655 -0.49616849 C174.22242869 -0.43395828 175.77654215 0.09872968 178.78935528 2.500494 C180.8457489 5.15390015 180.8457489 5.15390015 181.2832489 8.21640015 C180.85832403 11.06946713 180.51487059 12.81712978 178.8457489 15.15390015 C175.27458382 17.56154952 171.68335478 17.44000436 167.5269165 17.42132568 C166.78790366 17.4258568 166.04889081 17.43038791 165.28748363 17.43505633 C162.81017849 17.44772075 160.33309261 17.44607867 157.85575867 17.44442749 C156.08004981 17.45041141 154.30434356 17.45721664 152.52864075 17.46478271 C147.70430169 17.48246231 142.88003357 17.48713888 138.05566525 17.48841429 C134.02969644 17.49031271 130.00374417 17.49766946 125.97778171 17.50475848 C116.4808814 17.52104694 106.984019 17.52592695 97.48710632 17.52450562 C87.68611606 17.52330356 77.88534578 17.54441714 68.0844112 17.57599294 C59.67242189 17.60212955 51.26050454 17.61287403 42.84847492 17.6115948 C37.82310469 17.61108446 32.79793 17.61680742 27.77260017 17.6379509 C23.04720193 17.65728964 18.32218666 17.65748776 13.59677505 17.64291763 C11.86214197 17.64082311 10.12748519 17.64556864 8.39289284 17.65763855 C6.02533118 17.67304647 3.65909744 17.66381372 1.29156494 17.64837646 C0.26111151 17.66380715 0.26111151 17.66380715 -0.79015917 17.67954957 C-4.23457019 17.62989264 -6.11125723 17.18079755 -9.0571146 15.33783913 C-11.94581171 12.32957608 -12.1542511 10.27724474 -12.1542511 6.15390015 C-9.30620434 -0.08467847 -6.32673618 0.00448086 0 0 Z " fill="#000000" transform="translate(93.15425109863281,412.8460998535156)"/>
<path d="M0 0 C0.70957356 -0.00297112 1.41914711 -0.00594224 2.1502229 -0.0090034 C4.53384577 -0.01769239 6.91741844 -0.01919881 9.30105591 -0.02069092 C11.00765083 -0.02531891 12.71424472 -0.03034354 14.4208374 -0.03573608 C19.06134295 -0.0488629 23.70183403 -0.05530545 28.34235525 -0.05974674 C31.24049799 -0.06267668 34.13863676 -0.06678131 37.0367775 -0.07125092 C46.10140842 -0.08492585 55.16603029 -0.09459284 64.23067081 -0.09845281 C74.70026143 -0.10293537 85.16972162 -0.12049247 95.63927257 -0.1494534 C103.72851895 -0.1710546 111.8177286 -0.18115623 119.90700352 -0.18249393 C124.7400947 -0.18354297 129.57306326 -0.18947192 134.40612411 -0.20731354 C138.95170134 -0.22376749 143.49706341 -0.22596278 148.04265976 -0.21717453 C149.71117732 -0.21640275 151.37970632 -0.22076541 153.04819489 -0.23063278 C155.32584432 -0.24331303 157.60272722 -0.23749742 159.88037109 -0.22705078 C161.15500151 -0.22851734 162.42963192 -0.2299839 163.7428875 -0.2314949 C167.32626589 0.16943089 169.2133039 0.97703474 172.06716919 3.14044189 C173.63188152 6.26986655 173.76418877 9.75126413 173.06716919 13.14044189 C170.789611 16.17269608 169.60206091 17.05833248 165.80625916 17.64101315 C164.50250839 17.64122243 163.19875763 17.64143171 161.85549927 17.64164734 C160.76429763 17.64994893 160.76429763 17.64994893 159.65105152 17.65841824 C157.21258733 17.67203535 154.77514483 17.65705066 152.33670044 17.64215088 C150.5889238 17.64593369 148.84115015 17.65143342 147.09338379 17.65852356 C142.34544245 17.67250046 137.59786257 17.66129275 132.84994125 17.64481235 C127.88434302 17.63097564 122.91876606 17.63742035 117.95315552 17.64094543 C109.61382207 17.64364865 101.27463247 17.63016238 92.93533325 17.60699463 C83.28998505 17.5803842 73.64487737 17.57863738 63.99950504 17.59038299 C54.72607911 17.60115724 45.4527403 17.59497648 36.17932129 17.58082771 C32.23042749 17.57506484 28.28159738 17.57515296 24.33270264 17.57989311 C19.68365819 17.58466078 15.03487758 17.57456997 10.38588333 17.55293846 C8.67825841 17.54736754 6.97060815 17.54690809 5.26298141 17.55189133 C2.9346399 17.5578345 0.60710765 17.54535842 -1.72116089 17.52812195 C-3.67678703 17.52447711 -3.67678703 17.52447711 -5.67192078 17.52075863 C-9.11574568 17.11910871 -10.50649661 16.5611875 -12.93283081 14.14044189 C-13.99704091 11.49100216 -14.17618059 8.97767911 -13.93283081 6.14044189 C-10.31295609 0.06422361 -6.66819433 0.01557108 0 0 Z " fill="#000000" transform="translate(94.93283081054688,274.85955810546875)"/>
<path d="M0 0 C0.64423672 -0.00297112 1.28847344 -0.00594224 1.95223248 -0.0090034 C4.11474402 -0.01768715 6.27720018 -0.01919836 8.43972778 -0.02069092 C9.98868935 -0.02531928 11.53764979 -0.03034397 13.08660889 -0.03573608 C17.29737604 -0.04885936 21.50812724 -0.05530477 25.71891165 -0.05974674 C28.34903904 -0.06267727 30.97916207 -0.06678201 33.60928726 -0.07125092 C41.83670655 -0.08492496 50.06411588 -0.09459237 58.29154575 -0.09845281 C67.79217345 -0.10293506 77.2926574 -0.12049105 86.79324138 -0.1494534 C94.13514816 -0.17105908 101.47701445 -0.18115647 108.81895268 -0.18249393 C113.20491824 -0.18354265 117.59074864 -0.18946489 121.97668076 -0.20731354 C126.10202739 -0.22377525 130.22713698 -0.22595905 134.35250473 -0.21717453 C135.86621739 -0.21640316 137.37994269 -0.22076002 138.89362335 -0.23063278 C140.96110344 -0.24332638 143.02774065 -0.23749053 145.09521484 -0.22705078 C146.25185575 -0.22851734 147.40849667 -0.2299839 148.6001873 -0.2314949 C152.06054975 0.1871346 153.90339263 1.05679811 156.67459106 3.14044189 C159.02008781 6.65868701 159.25450509 7.99819884 158.67459106 12.14044189 C156.12284872 15.35754186 154.61892993 16.95253739 150.54051113 17.76406097 C149.35567166 17.76334846 148.1708322 17.76263596 146.9500885 17.76190186 C145.95561049 17.77148509 145.95561049 17.77148509 144.94104201 17.78126192 C142.72652348 17.7964843 140.51380221 17.77607239 138.29934692 17.75567627 C136.70905465 17.75917831 135.11876587 17.76483783 133.52848816 17.77249146 C129.2143708 17.78673619 124.90089105 17.769682 120.58683467 17.74620628 C116.07235245 17.7260985 111.55789673 17.73197674 107.04338074 17.73431396 C99.46323123 17.7342604 91.88333103 17.71450502 84.30325317 17.68243408 C75.53775962 17.64552816 66.77259249 17.63676039 58.00703138 17.64373159 C49.57560689 17.65003474 41.14429442 17.63928666 32.71289253 17.61976624 C29.12405362 17.61158839 25.53527193 17.60888339 21.94642448 17.61045837 C17.72168169 17.61133674 13.49724957 17.59713438 9.27258873 17.57123184 C7.72138729 17.56406453 6.17015281 17.56198914 4.61893845 17.56534958 C2.50299097 17.56905936 0.38795267 17.55433599 -1.72789001 17.53485107 C-3.50458368 17.529258 -3.50458368 17.529258 -5.31717014 17.52355194 C-8.60248017 17.10515588 -9.97623882 16.4285571 -12.32540894 14.14044189 C-13.38961904 11.49100216 -13.56875872 8.97767911 -13.32540894 6.14044189 C-9.84350484 0.29581716 -6.43559189 0.01656193 0 0 Z " fill="#000000" transform="translate(94.32540893554688,228.85955810546875)"/>
<path d="M0 0 C1.04032379 -0.00860046 2.08064758 -0.01720093 3.15249634 -0.02606201 C4.29851318 -0.03032196 5.44453003 -0.03458191 6.62527466 -0.03897095 C7.82858429 -0.04714844 9.03189392 -0.05532593 10.27166748 -0.06375122 C14.26730006 -0.08863454 18.26289478 -0.10527681 22.25857544 -0.11953735 C23.63353609 -0.12489686 25.00849667 -0.13027436 26.38345718 -0.13566971 C32.10185526 -0.15729649 37.8202505 -0.1760342 43.53867912 -0.1872921 C51.73748695 -0.20353889 59.93582143 -0.23673577 68.13445079 -0.29369295 C73.89756338 -0.33236748 79.66054922 -0.35192169 85.42378819 -0.35721266 C88.86700845 -0.36086918 92.30972384 -0.37292088 95.7528038 -0.4053154 C99.5932487 -0.44093119 103.43309724 -0.43703148 107.27371216 -0.42959595 C108.41568054 -0.44600128 109.55764893 -0.46240662 110.73422241 -0.47930908 C118.41970684 -0.41818691 118.41970684 -0.41818691 121.78546143 2.50286865 C123.37549267 5.76182683 123.6761148 7.57053899 123.07888794 11.15390015 C121.79020691 13.802948 121.79020691 13.802948 119.07888794 16.15390015 C115.12964787 16.92189402 111.20952826 16.81541313 107.19778442 16.76913452 C105.98282288 16.77468353 104.76786133 16.78023254 103.51608276 16.78594971 C100.18713943 16.79573713 96.85974861 16.78314514 93.53097034 16.75966454 C90.04768355 16.73955411 86.56443103 16.7454351 83.08110046 16.74777222 C77.2326494 16.74771865 71.38452152 16.72796568 65.53616333 16.69589233 C58.77297644 16.65898242 52.01021263 16.65021914 45.24693817 16.65718985 C38.7414061 16.66349262 32.23601921 16.65274594 25.73051643 16.63322449 C22.96142573 16.62504618 20.19240919 16.62234171 17.42330742 16.62391663 C13.55891271 16.62495788 9.6949025 16.60079915 5.83059692 16.57382202 C4.67882462 16.57675262 3.52705231 16.57968323 2.34037781 16.58270264 C1.2902652 16.57135284 0.24015259 16.56000305 -0.84178162 16.54830933 C-1.75561395 16.54458061 -2.66944628 16.5408519 -3.6109705 16.53701019 C-6.40001779 16.07447921 -7.2634776 15.41317999 -8.92111206 13.15390015 C-9.94848878 9.19116139 -10.32683675 7.04263041 -8.60861206 3.27890015 C-5.95123137 -0.06743109 -4.09869386 0.02517044 0 0 Z " fill="#000000" transform="translate(90.92111206054688,183.84609985351563)"/>
</svg>
